<?xml version="1.0" encoding="UTF-8" standalone="no"?>
<!-- Created with Inkscape (http://www.inkscape.org/) -->

<svg
   xmlns:dc="http://purl.org/dc/elements/1.1/"
   xmlns:cc="http://creativecommons.org/ns#"
   xmlns:rdf="http://www.w3.org/1999/02/22-rdf-syntax-ns#"
   xmlns:svg="http://www.w3.org/2000/svg"
   xmlns="http://www.w3.org/2000/svg"
   xmlns:sodipodi="http://sodipodi.sourceforge.net/DTD/sodipodi-0.dtd"
   xmlns:inkscape="http://www.inkscape.org/namespaces/inkscape"
   width="1000"
   height="275.79517"
   id="svg2"
   version="1.1"
   inkscape:version="0.48.5 r10040"
   sodipodi:docname="A.svg">
  <defs
     id="defs4">
    <clipPath
       clipPathUnits="userSpaceOnUse"
       id="clipPath15271">
      <path
         inkscape:connector-curvature="0"
         d="m 0,1060 1536,0 L 1536,0 0,0 0,1060 z"
         id="path15273" />
    </clipPath>
  </defs>
  <sodipodi:namedview
     id="base"
     pagecolor="#ffffff"
     bordercolor="#666666"
     borderopacity="1.0"
     inkscape:pageopacity="0.0"
     inkscape:pageshadow="2"
     inkscape:zoom="0.56396484"
     inkscape:cx="592.62729"
     inkscape:cy="-17.346667"
     inkscape:document-units="px"
     inkscape:current-layer="layer1"
     showgrid="false"
     fit-margin-left="0.5"
     fit-margin-bottom="0.5"
     fit-margin-top="0.5"
     fit-margin-right="0.5"
     inkscape:window-width="1107"
     inkscape:window-height="1022"
     inkscape:window-x="807"
     inkscape:window-y="-12"
     inkscape:window-maximized="0" />
  <metadata
     id="metadata7">
    <rdf:RDF>
      <cc:Work
         rdf:about="">
        <dc:format>image/svg+xml</dc:format>
        <dc:type
           rdf:resource="http://purl.org/dc/dcmitype/StillImage" />
        <dc:title></dc:title>
      </cc:Work>
    </rdf:RDF>
  </metadata>
  <g
     inkscape:label="Layer 1"
     inkscape:groupmode="layer"
     id="layer1"
     transform="translate(-853.55762,54.880371)">
    <g
       id="g19833"
       transform="matrix(13.189424,0,0,-13.189424,1610.8759,-3.2902399)">
      <path
         inkscape:connector-curvature="0"
         d="M 0,0 C 0,1.5 -1.22,2.72 -2.72,2.72 -4.219,2.72 -5.44,1.5 -5.44,0 c 0,-1.499 1.221,-2.717 2.72,-2.717 1.5,0 2.72,1.218 2.72,2.717"
         style="fill:#f47216;fill-opacity:1;fill-rule:nonzero;stroke:none"
         id="path19835" />
    </g>
    <g
       id="g19837"
       transform="matrix(13.189424,0,0,-13.189424,1851.7519,-10.142093)">
      <path
         inkscape:connector-curvature="0"
         d="m 0,0 c -0.75,1.509 -1.837,1.982 -2.616,2.114 -2.251,0.383 -4.448,-1.555 -5.067,-2.158 -0.367,-0.358 -0.374,-0.947 -0.016,-1.313 0.17,-0.177 0.401,-0.276 0.65,-0.28 0.248,-0.003 0.483,0.09 0.662,0.263 0.949,0.924 2.357,1.845 3.462,1.658 0.522,-0.088 0.935,-0.452 1.265,-1.112 0.109,-0.221 0.299,-0.387 0.534,-0.465 0.235,-0.079 0.487,-0.062 0.71,0.049 0.221,0.11 0.388,0.3 0.466,0.535 0.033,0.097 0.049,0.196 0.049,0.296 C 0.099,-0.271 0.066,-0.131 0,0"
         style="fill:#f47216;fill-opacity:1;fill-rule:nonzero;stroke:none"
         id="path19839" />
    </g>
    <g
       id="g19841"
       transform="matrix(13.189424,0,0,-13.189424,1678.6142,-53.246502)">
      <path
         inkscape:connector-curvature="0"
         d="m 0,0 c -0.521,-0.229 -0.759,-0.837 -0.532,-1.358 0.048,-0.108 4.726,-10.922 1.504,-15.798 -0.987,-1.491 -2.518,-1.71 -3.621,-1.417 -1.313,0.347 -2.213,1.355 -2.293,2.568 -0.018,0.273 -0.141,0.524 -0.347,0.705 -0.207,0.182 -0.473,0.273 -0.748,0.255 -0.568,-0.039 -1,-0.531 -0.962,-1.096 0.14,-2.109 1.641,-3.846 3.822,-4.424 1.796,-0.476 4.28,-0.129 5.867,2.273 1.064,1.609 1.452,3.654 1.452,5.781 0,5.54 -2.632,11.628 -2.786,11.979 C 1.129,-0.011 0.52,0.227 0,0"
         style="fill:#f47216;fill-opacity:1;fill-rule:nonzero;stroke:none"
         id="path19843" />
    </g>
    <g
       id="g19845"
       transform="matrix(13.189424,0,0,-13.189424,907.05273,32.173483)">
      <path
         inkscape:connector-curvature="0"
         d="m 0,0 -1.098,0 -10e-4,-0.004 -0.246,0 -0.827,-5.065 c -0.201,-1.379 -0.652,-1.723 -1.846,-2.143 l 0.68,-0.951 c 1.123,0.166 2.792,0.762 3.108,2.351 l 0.558,3.42 c 0,0.002 0.001,0.004 0.002,0.006 l 0.264,1.621 C 0.663,-0.341 0.398,0 0,0"
         style="fill:#8a918d;fill-opacity:1;fill-rule:nonzero;stroke:none"
         id="path19847" />
    </g>
    <g
       id="g19849"
       transform="matrix(13.189424,0,0,-13.189424,1056.634,32.173483)">
      <path
         inkscape:connector-curvature="0"
         d="m 0,0 -1.098,0 -10e-4,-0.004 -0.246,0 -0.827,-5.065 c -0.201,-1.379 -0.652,-1.723 -1.846,-2.143 l 0.68,-0.951 c 1.124,0.166 2.792,0.762 3.108,2.351 l 0.558,3.42 c 0,0.002 0.001,0.004 0.003,0.006 l 0.263,1.621 C 0.663,-0.341 0.398,0 0,0"
         style="fill:#8a918d;fill-opacity:1;fill-rule:nonzero;stroke:none"
         id="path19851" />
    </g>
    <g
       id="g19853"
       transform="matrix(13.189424,0,0,-13.189424,1350.7581,32.173483)">
      <path
         inkscape:connector-curvature="0"
         d="m 0,0 -1.098,0 -10e-4,-0.004 -0.245,0 -1.11,-6.798 2.062,0 0.875,5.354 0.111,0.683 C 0.663,-0.341 0.396,0 0,0"
         style="fill:#8a918d;fill-opacity:1;fill-rule:nonzero;stroke:none"
         id="path19855" />
    </g>
    <g
       id="g19857"
       transform="matrix(13.189424,0,0,-13.189424,1285.2239,39.138871)">
      <path
         inkscape:connector-curvature="0"
         d="m 0,0 c -0.002,0.01 -0.002,0.021 -0.003,0.031 -0.056,0.291 -0.284,0.497 -0.592,0.497 l -1.098,0 -10e-4,-0.004 -0.5,0 -3.634,-6.798 2.119,0 0.572,1.307 1.971,0 0.15,-1.307 2.187,0 L 0.086,-0.462 0,0 z m -2.516,-3.622 c 0,0 0.994,2.195 0.995,2.196 -0.001,-0.001 0.237,-2.196 0.237,-2.196 l -1.232,0 z"
         style="fill:#8a918d;fill-opacity:1;fill-rule:nonzero;stroke:none"
         id="path19859" />
    </g>
    <g
       id="g19861"
       transform="matrix(13.189424,0,0,-13.189424,1460.0945,57.832189)">
      <path
         inkscape:connector-curvature="0"
         d="m 0,0 c 0.186,1.133 -0.428,1.941 -2.738,1.941 l -0.885,0 0,0.004 -1.098,0 c -0.397,0 -0.776,-0.341 -0.844,-0.764 l -0.164,-1.005 -0.002,0 -0.822,-5.033 2.019,0 0.439,2.692 c 0.439,0 0.605,-0.088 0.795,-0.79 l 0.512,-1.902 2.335,0 C -0.63,-4.35 -1.091,-3.092 -1.276,-2.633 -1.41,-2.282 -1.685,-1.97 -1.945,-1.901 -0.998,-1.764 -0.191,-1.17 0,0 M -2.266,-0.136 C -2.341,-0.595 -2.624,-0.878 -3.31,-0.878 l -0.576,0 0.227,1.386 0.564,0 c 0.631,0 0.909,-0.156 0.829,-0.644"
         style="fill:#8a918d;fill-opacity:1;fill-rule:nonzero;stroke:none"
         id="path19863" />
    </g>
    <g
       id="g19865"
       transform="matrix(13.189424,0,0,-13.189424,1162.5451,32.173483)">
      <path
         inkscape:connector-curvature="0"
         d="m 0,0 -1.098,0 -10e-4,-0.004 -0.199,0 -0.728,-4.468 c -0.109,-0.662 -0.37,-1.014 -1.091,-1.014 -0.709,0 -0.866,0.42 -0.765,1.044 l 0.726,4.438 -0.208,0 0,0.004 -1.099,0 c -0.396,0 -0.775,-0.341 -0.844,-0.765 l -0.159,-0.976 -0.004,0 -0.471,-2.887 c -0.147,-0.907 -0.085,-1.072 0.148,-1.443 0.383,-0.556 1.192,-0.849 2.431,-0.849 1.556,0 2.521,0.528 2.941,1.092 0.214,0.274 0.278,0.538 0.374,1.122 l 0.556,3.411 -0.001,0.002 0.086,0.528 C 0.663,-0.341 0.397,0 0,0"
         style="fill:#8a918d;fill-opacity:1;fill-rule:nonzero;stroke:none"
         id="path19867" />
    </g>
    <g
       id="g19869"
       transform="matrix(13.189424,0,0,-13.189424,968.74895,32.173483)">
      <path
         inkscape:connector-curvature="0"
         d="m 0,0 -1.098,0 c -0.398,0 -0.776,-0.341 -0.844,-0.765 l -0.265,-1.621 c 0,-0.002 0,-0.004 -0.002,-0.006 l -0.719,-4.41 4.712,0 0.238,1.452 -2.694,0 0.226,1.386 1.961,0 0.226,1.385 -1.961,0 0.186,1.142 2.474,0 0.234,1.433 -2.676,0 L 0,0 z"
         style="fill:#8a918d;fill-opacity:1;fill-rule:nonzero;stroke:none"
         id="path19871" />
    </g>
  </g>
</svg>
